<?xml version="1.0" encoding="utf-8"?>
<!-- Generator: Adobe Illustrator 26.0.1, SVG Export Plug-In . SVG Version: 6.00 Build 0)  -->
<svg version="1.1" id="Layer_1" xmlns="http://www.w3.org/2000/svg" xmlns:xlink="http://www.w3.org/1999/xlink" x="0px" y="0px"
	 viewBox="0 0 400 400" style="enable-background:new 0 0 400 400;" xml:space="preserve">
<style type="text/css">
	.st0{fill-rule:evenodd;clip-rule:evenodd;fill:#FFFFFF;}
</style>
<path class="st0" d="M44.2,60c-24.3,29-24.3,65.7-24.3,150v190l197.5-27.7c67-8,100.5-12,123.9-30.7c9-7.3,16.8-16,22.9-25.8
	c15.9-25.3,15.9-59,15.9-126.4v0v0c0-83.6,0-120-21.3-147.9c-8.2-10.7-18.4-19.7-30-26.6C298.4-2.9,279.9-3.4,195.5,6.5
	c-10.7,1.3-20.5,2.3-29.4,3.3c-61.2,6.6-83.2,9-117.9,45.7C46.8,56.9,45.5,58.5,44.2,60z M148.5,298.3c4.2,2.6,7.9,4.2,11.4,4.7
	c3.4,0.6,7.7,0.5,12.7,0l46.6-5.5c16.3-1.9,31.5-13.7,45.6-35.4c4.9-7.5,8.7-15.7,11.7-24.6l-39.4-6.1
	c-5.7,11.4-11.6,19.5-17.6,24.2l-46.3,5.4c-0.7,0-3-1.7-6.9-5.3c-3.9-3.6-5.9-5.7-5.9-6.5l-0.2-108c0-0.7,2-3.3,5.9-7.8
	c3.9-4.5,6.2-6.8,6.9-6.9l46.3-5.4c6,3.4,11.9,10.1,17.7,20.1l39.4-15.3c-2.8-7.8-6.7-15-11.8-21.8c-5.3-7.2-11.9-13.4-19.7-18.6
	c-7.9-5.2-16.5-7.2-25.9-6.1L172.2,85c-5,0.6-9.3,1.6-12.8,2.9c-3.4,1.3-7.3,3.8-11.4,7.4c-3.4,2.8-7.5,6.8-12.1,12.1
	c-4.6,5.3-8.2,10-10.7,14.1c-3,4.6-4.9,8.8-5.9,12.5c-0.9,3.7-1.3,8.1-1.3,13.4l0.2,105.8c0,5.2,0.5,9.6,1.4,13
	c0.9,3.5,2.9,7.2,5.9,11.1c2.5,3.3,6,7,10.5,11.3C140.7,292.9,144.8,296.2,148.5,298.3z"/>
</svg>
